<?xml version="1.0" standalone="no"?>
<!DOCTYPE svg PUBLIC "-//W3C//DTD SVG 20010904//EN"
 "http://www.w3.org/TR/2001/REC-SVG-20010904/DTD/svg10.dtd">
<svg version="1.0" xmlns="http://www.w3.org/2000/svg"
 width="373.000000pt" height="372.000000pt" viewBox="0 0 373.000000 372.000000"
 preserveAspectRatio="xMidYMid meet">
<metadata>
Created by potrace 1.16, written by Peter Selinger 2001-2019
</metadata>
<g transform="translate(0.000000,372.000000) scale(0.100000,-0.100000)"
fill="currentColor" stroke="current">
<path d="M1560 3705 c-310 -46 -601 -174 -865 -380 -108 -85 -285 -270 -368
-385 -76 -107 -202 -354 -242 -475 -67 -198 -77 -270 -82 -550 -6 -288 2 -370
47 -545 177 -674 730 -1198 1420 -1347 73 -15 132 -18 415 -18 l330 1 115 31
c471 127 833 381 1094 766 155 229 261 512 296 789 19 151 8 516 -20 643 -104
486 -381 901 -779 1167 -239 160 -500 261 -776 303 -123 18 -462 18 -585 0z
m692 -89 c146 -34 273 -78 401 -142 182 -91 317 -187 460 -329 80 -79 197
-219 197 -236 0 -22 -20 -4 -78 70 -242 306 -594 526 -977 610 -55 12 -110 24
-122 27 -27 5 -31 24 -5 24 9 0 65 -11 124 -24z m-117 -91 c520 -91 942 -387
1207 -846 201 -347 266 -785 177 -1194 -75 -348 -278 -690 -541 -911 -360
-302 -793 -444 -1235 -406 -247 21 -423 70 -638 177 -469 234 -792 656 -907
1185 -19 92 -22 133 -22 330 0 196 3 238 22 329 53 241 151 469 280 651 86
122 271 306 392 392 234 165 512 272 800 308 103 12 356 5 465 -15z m-1315
-223 c0 -4 -30 -30 -68 -59 -96 -73 -266 -252 -344 -363 -130 -183 -246 -456
-285 -672 -10 -55 -22 -97 -28 -95 -14 5 -8 51 26 188 90 371 295 695 599 947
69 57 100 74 100 54z m2804 -1815 c-91 -393 -278 -712 -563 -961 -115 -101
-97 -59 24 56 229 218 377 450 469 736 19 59 39 134 46 167 14 68 18 77 30 70
4 -3 2 -33 -6 -68z m-2805 -1058 c66 -50 160 -107 251 -152 163 -82 265 -118
463 -161 28 -7 38 -26 13 -26 -27 0 -240 58 -311 85 -257 97 -523 280 -697
482 -112 129 -77 115 54 -21 69 -73 166 -161 227 -207z"/>
<path d="M1705 3294 c-340 -50 -621 -187 -853 -416 -119 -118 -203 -233 -277
-383 -103 -208 -155 -424 -155 -644 0 -139 29 -191 108 -191 75 0 111 41 112
126 1 245 69 502 182 687 37 60 150 209 155 204 1 -2 -10 -55 -26 -119 -85
-343 -89 -728 -9 -972 48 -147 126 -246 194 -246 112 0 147 91 79 202 -71 115
-105 269 -105 480 0 283 71 593 192 843 l43 88 84 35 c174 70 391 102 570 82
248 -27 438 -103 665 -265 62 -45 119 -48 165 -9 27 23 31 32 31 79 0 67 -14
85 -127 162 -164 112 -350 193 -541 234 -72 15 -143 21 -277 24 -99 2 -193 1
-210 -1z"/>
<path d="M2019 2770 c-355 -46 -701 -363 -703 -643 -1 -54 2 -61 32 -88 26
-23 42 -29 78 -29 60 0 97 35 113 108 25 118 115 235 248 322 162 107 324 134
450 76 l62 -28 -16 -37 c-92 -208 -205 -663 -248 -994 -17 -133 -20 -384 -5
-438 14 -50 59 -89 109 -96 23 -3 76 0 119 7 362 58 698 282 837 558 39 77
102 252 136 377 40 146 49 304 25 424 -21 101 -62 204 -97 242 -55 58 -155 44
-185 -26 -16 -40 -10 -74 31 -174 37 -87 47 -167 34 -270 -16 -137 -118 -429
-184 -527 -98 -149 -290 -281 -503 -348 -123 -39 -116 -44 -108 81 23 359 161
927 277 1140 62 114 51 169 -47 240 -136 97 -305 143 -455 123z"/>
<path d="M1554 1506 c-53 -23 -99 -89 -132 -189 -29 -87 -48 -189 -88 -454
-10 -66 -21 -113 -28 -113 -6 0 -38 16 -71 36 -165 99 -330 270 -424 437 -45
79 -81 107 -138 107 -63 0 -103 -40 -103 -103 0 -85 115 -260 275 -421 118
-119 228 -200 372 -273 87 -45 112 -53 158 -53 46 0 59 4 90 31 45 40 57 81
95 337 17 114 40 247 51 297 10 49 19 91 19 94 0 3 6 -1 13 -7 9 -10 13 -106
17 -385 5 -344 6 -374 24 -400 41 -61 135 -82 323 -74 355 16 587 111 800 329
123 126 143 156 143 216 0 70 -58 115 -134 104 -21 -4 -46 -22 -81 -61 -103
-114 -166 -172 -240 -220 -145 -95 -313 -141 -511 -141 l-104 0 2 288 c1 301
-8 404 -43 497 -21 56 -68 108 -112 124 -39 15 -136 13 -173 -3z"/>
</g>
</svg>
